<svg width="667" height="667" viewBox="0 0 667 667" fill="none" xmlns="http://www.w3.org/2000/svg">
<path d="M423.592 93.9307C423.592 93.9307 506.457 55.0054 546.339 113.437C586.22 171.869 489.173 248.183 589.361 306.476C660.109 347.641 623.92 459.005 549.02 444.708C463.791 428.439 521.744 371.677 333.555 405.409C240.367 422.112 171.5 188.249 423.592 93.9307Z" fill="#D4D4EA"/>
<path d="M421.073 60.1361C421.073 60.1361 443.867 47.8361 454.336 59.9641C464.804 72.0908 436.609 87.4428 422.689 82.7188C408.768 77.9948 412.123 63.5188 421.073 60.1361Z" fill="#D4D4EA"/>
<path d="M386.78 89.7267C383.245 83.364 386.5 75.4494 393.255 73.3214C398.573 71.6467 404.984 71.3814 408.747 77.4613C416.028 89.2267 401.539 93.5267 394.131 94.2187C390.988 94.5107 387.876 91.7 386.78 89.7267Z" fill="#D4D4EA"/>
<path d="M597.577 303.449C597.577 303.449 578.952 291.703 581.624 277.913C584.296 264.123 607.199 278.208 610.579 290.696C613.956 303.184 603.652 308.184 597.577 303.449Z" fill="#D4D4EA"/>
<path d="M618.421 323.78C622.987 327.209 629.036 324.609 630.951 318.635C632.457 313.932 632.968 308.192 628.627 304.571C620.224 297.563 612.587 306.304 614.397 316.499C614.891 319.279 617.007 322.716 618.421 323.78Z" fill="#D4D4EA"/>
<path d="M631.047 614.955C631.047 622.244 499.363 628.152 336.923 628.152C174.484 628.152 42.8 622.244 42.8 614.955C42.8 607.667 174.484 601.757 336.923 601.757C499.363 601.757 631.047 607.667 631.047 614.955Z" fill="#B1B3D3"/>
<path d="M268.159 464.376C268.532 462.428 269.589 458.515 272.141 457.6C275.573 456.369 277.204 461.055 275.099 463.695C273.309 465.936 270.611 469.056 268.829 467.056C268.187 466.333 267.976 465.325 268.159 464.376ZM286.228 480.316C286.228 480.316 290.94 469.34 294.071 472.047C297.2 474.755 285.936 490.043 286.228 480.316ZM242.675 486.256C242.997 485.972 243.452 485.892 243.873 485.807C245.272 485.529 248.849 485.057 250.977 486.94C253.555 489.219 237.392 490.913 242.675 486.256ZM261.097 497.771C266.493 497.591 260.417 511.551 255.789 508.104C254.728 507.313 254.304 505.931 254.608 504.643C255.181 502.217 256.801 497.913 261.097 497.771ZM233.452 502.32C240.075 496.947 247.133 495.769 245.12 502.973C243.297 509.496 231.725 508.439 227.563 512.412C230.681 516.984 234.228 521.649 238.264 526.388C238.648 526.84 239.031 527.28 239.413 527.715C241.504 527.603 243.828 526.936 246.184 525.239C253.871 519.7 262.925 514.788 266.124 520.14C269.296 525.448 262.664 529.811 251.169 539.016C251.675 539.41 252.175 539.786 252.673 540.153C273.584 549.128 289.236 541.376 302.375 525.637C300.092 523.519 297.497 521.252 294.941 519.324C287.753 513.9 235.956 449.317 224.671 431.867C224.671 431.867 288.465 506.376 301.208 518.1C302.279 519.084 303.269 519.997 304.197 520.852C305.495 522.047 306.657 523.12 307.699 524.081L308.995 523.703C307.361 520.485 307.575 518.139 307.609 517.856C308.193 516.021 309.491 514.064 311.963 512.131C321.253 504.865 329.384 503.492 330.207 491.547C330.104 485.257 328.403 478.963 325.565 472.909C325.401 473.084 325.231 473.257 325.049 473.431C314.237 483.78 309.001 489.917 304.112 486.047C299.224 482.176 305.279 473.841 311.775 466.945C314.965 463.559 315.527 459.907 315.273 457.065C311.644 452.725 307.567 448.693 303.288 445.096C297.957 447.799 297.871 460.823 290.751 461.837C283.345 462.891 285.435 456.047 291.628 450.184C295.925 446.117 295.497 441.297 294.833 438.727C289.777 435.333 284.667 432.617 279.867 430.771C279.865 431.177 279.883 431.595 279.925 432.024C280.961 442.476 271.877 453.063 266.147 449.699C260.417 446.335 266.613 436.411 267.991 431.547C268.455 429.905 268.633 428.384 268.607 426.987C260.779 424.472 253.659 422.387 247.264 420.82C248.305 427.196 252.849 433.644 250.695 437.972C247.516 444.361 240.376 440.996 240.585 430.645C240.692 425.397 238.617 422.031 236.548 419.988C235.431 418.888 233.98 418.181 232.423 417.996C230.528 417.772 228.733 417.628 227.041 417.572C218.903 417.301 210.653 423.636 208.801 431.565C208.22 434.055 207.683 436.937 207.295 440.171C207.295 440.171 209.217 448.768 219.505 449.915C229.795 451.059 232.199 458.579 225.448 460.895C220.361 462.64 213.757 455.824 206.791 454.768C207.108 461.396 208.185 468.807 210.475 476.835C212.277 477.352 214.383 477.555 216.816 477.2C221.817 476.472 232.468 471.627 235.053 477.748C237.639 483.867 225.956 491.489 215.728 489.096C215.38 489.015 215.039 488.953 214.703 488.904C216.763 493.859 219.299 498.989 222.397 504.267C224.991 505.145 229.275 505.711 233.452 502.32Z" fill="#D4D4EA"/>
<path d="M302.375 525.637L307.699 524.081C306.657 523.12 305.495 522.047 304.197 520.852C303.269 519.997 302.279 519.084 301.208 518.1C288.465 506.376 224.671 431.867 224.671 431.867C235.956 449.317 287.753 513.9 294.941 519.324C297.497 521.252 300.092 523.519 302.375 525.637Z" fill="#A1A8CE"/>
<path d="M248.448 462.623C236.908 461.584 228.448 464.871 228.448 464.871C241.611 463.001 252.455 467.841 252.455 467.841L248.448 462.623Z" fill="#A1A8CE"/>
<path d="M248.975 461.672C248.823 450.084 252.749 441.903 252.749 441.903C249.876 454.883 253.871 466.067 253.871 466.067L248.975 461.672Z" fill="#A1A8CE"/>
<path d="M269.105 484.883C272.915 473.937 279.396 467.585 279.396 467.585C272.268 478.808 272.209 490.683 272.209 490.683L269.105 484.883Z" fill="#A1A8CE"/>
<path d="M287.808 504.344C289.94 492.953 295.4 485.704 295.4 485.704C290.029 497.865 291.745 509.616 291.745 509.616L287.808 504.344Z" fill="#A1A8CE"/>
<path d="M268.023 487.008C256.748 489.687 249.771 495.488 249.771 495.488C261.659 489.537 273.477 490.687 273.477 490.687L268.023 487.008Z" fill="#A1A8CE"/>
<path d="M285.483 507.592C273.935 508.556 266.168 513.251 266.168 513.251C278.812 509.143 290.327 512.044 290.327 512.044L285.483 507.592Z" fill="#A1A8CE"/>
<path d="M563.465 184.889C561.796 187.035 558.855 184.059 556.891 181.911C554.581 179.381 555.915 174.528 559.472 175.541C562.117 176.295 563.452 180.185 563.963 182.131C564.211 183.08 564.067 184.115 563.465 184.889ZM538.251 191.649C541.237 188.696 546.749 199.489 546.749 199.489C547.7 209.316 535.264 194.601 538.251 191.649ZM582.88 203.812C584.908 201.761 588.561 201.997 589.995 202.185C590.428 202.241 590.893 202.292 591.24 202.557C596.903 206.915 580.425 206.293 582.88 203.812ZM580.403 221.979C580.799 223.261 580.461 224.691 579.44 225.561C574.988 229.363 567.895 215.643 573.368 215.46C577.728 215.313 579.659 219.561 580.403 221.979ZM612.984 219.419C615.764 213.868 617.984 208.501 619.735 203.347C619.397 203.419 619.056 203.505 618.709 203.611C608.519 206.725 596.176 199.8 598.379 193.429C600.583 187.057 611.692 191.244 616.805 191.643C619.292 191.836 621.408 191.489 623.197 190.844C624.972 182.561 625.564 174.987 625.436 168.256C618.456 169.796 612.231 177.143 606.964 175.72C599.973 173.831 601.899 166.056 612.237 164.201C622.576 162.345 623.939 153.513 623.939 153.513C623.328 150.267 622.588 147.384 621.832 144.904C619.421 137.001 610.641 131.147 602.42 131.971C600.713 132.141 598.907 132.409 597.003 132.764C595.437 133.056 594.017 133.869 592.963 135.06C591.004 137.268 589.132 140.815 589.595 146.121C590.507 156.585 583.507 160.475 579.856 154.223C577.383 149.987 581.547 143.152 582.169 136.627C575.803 138.644 568.735 141.237 560.98 144.312C561.049 145.728 561.332 147.255 561.915 148.887C563.636 153.717 570.58 163.344 565.007 167.137C559.433 170.931 549.523 160.828 549.863 150.176C549.877 149.739 549.867 149.316 549.837 148.904C545.104 151.097 540.115 154.192 535.225 157.969C534.727 160.617 534.619 165.525 539.245 169.352C545.911 174.867 548.488 181.655 540.92 181.088C533.644 180.544 532.676 167.363 527.097 164.991C523.008 168.919 519.153 173.277 515.773 177.915C515.709 180.809 516.525 184.468 519.983 187.681C527.025 194.223 533.717 202.251 529.029 206.5C524.344 210.749 518.628 204.889 506.983 195.144C506.788 194.981 506.603 194.816 506.425 194.651C503.963 200.971 502.667 207.459 502.987 213.833C504.628 225.869 512.951 226.709 522.848 233.436C525.48 235.225 526.927 237.119 527.641 238.936C527.696 239.221 528.071 241.583 526.636 244.949L527.972 245.245C528.961 244.201 530.065 243.036 531.299 241.739C532.18 240.811 533.121 239.821 534.137 238.751C546.245 226.023 605.788 146.281 605.788 146.281C595.543 164.709 547.475 233.591 540.565 239.567C538.108 241.692 535.636 244.16 533.467 246.46L584.76 257.796C585.241 257.389 585.723 256.976 586.207 256.541C573.949 248.001 566.94 244.032 569.792 238.445C572.668 232.809 582.167 237.171 590.321 242.257C592.821 243.816 595.219 244.335 597.344 244.307C597.701 243.84 598.059 243.369 598.417 242.887C602.184 237.816 605.457 232.855 608.305 228.013C603.823 224.275 592.181 226.125 589.895 219.647C587.369 212.491 594.595 213.204 601.661 218.196C606.12 221.345 610.417 220.484 612.984 219.419Z" fill="#D4D4EA"/>
<path d="M533.467 246.46L527.972 245.245C528.961 244.201 530.065 243.036 531.299 241.739C532.18 240.811 533.121 239.821 534.139 238.751C546.245 226.023 605.788 146.281 605.788 146.281C595.543 164.709 547.475 233.591 540.565 239.567C538.108 241.693 535.636 244.16 533.467 246.46Z" fill="#A1A8CE"/>
<path d="M583.796 179.024C595.411 177.192 604.195 179.948 604.195 179.948C590.745 178.945 580.093 184.577 580.093 184.577L583.796 179.024Z" fill="#A1A8CE"/>
<path d="M583.199 178.097C582.571 166.357 578.043 158.34 578.043 158.34C581.828 171.285 578.54 182.876 578.54 182.876L583.199 178.097Z" fill="#A1A8CE"/>
<path d="M564.392 202.955C559.795 192.133 552.804 186.141 552.804 186.141C560.777 197.019 561.64 209.036 561.64 209.036L564.392 202.955Z" fill="#A1A8CE"/>
<path d="M546.772 223.92C543.845 212.533 537.827 205.564 537.827 205.564C544.085 217.512 543.144 229.523 543.144 229.523L546.772 223.92Z" fill="#A1A8CE"/>
<path d="M565.631 205.033C577.225 206.981 584.681 212.384 584.681 212.384C572.244 207.164 560.357 209.124 560.357 209.124L565.631 205.033Z" fill="#A1A8CE"/>
<path d="M549.347 227.052C561.103 227.247 569.281 231.473 569.281 231.473C556.204 228.171 544.744 231.885 544.744 231.885L549.347 227.052Z" fill="#A1A8CE"/>
<path d="M597.165 536.492C589.368 529.136 565.169 540.455 550.912 556.576L565.529 529.736C569.704 527.127 576.839 523.667 587.449 521.684C603.949 518.6 620.979 512.384 613.168 505.016C605.848 498.109 584.071 507.664 569.636 522.197L588.409 487.731C591.128 486.247 595.173 484.561 600.741 483.521C611.14 481.579 621.872 477.66 616.949 473.016C612.679 468.985 600.592 473.852 591.603 481.865L597.688 470.695C600.16 467.561 603.681 463.08 608.716 459.279C620.381 450.472 629.805 439.985 622.332 437.077C614.852 434.165 598.976 452.52 594.092 470.587L590.961 476.336C594.751 463.231 592.488 446.289 585.875 444.661C579.304 443.045 581.833 454.187 585.841 463.976C588.892 471.429 589.181 477.008 589.047 479.851L574.257 507.001C580.199 486.232 576.6 459.493 566.137 456.919C555.709 454.355 559.724 472.032 566.084 487.568C570.889 499.305 571.377 508.12 571.176 512.66L553.441 545.219C558.915 524.633 555.255 498.856 544.991 496.331C534.564 493.765 537.629 506.756 544.723 524.312C549.543 536.245 550.093 546.364 549.952 551.627L541.512 567.121L544.331 568.656L547.741 562.395C551.496 559.753 559.129 555.463 571.447 553.16C587.947 550.077 604.976 543.861 597.165 536.492Z" fill="#D4D4EA"/>
<path d="M572.716 507.74C572.589 507.671 572.512 507.528 572.532 507.376C575.451 485.775 567.489 468.409 567.409 468.236C567.324 468.056 567.403 467.843 567.583 467.757C567.761 467.675 567.975 467.751 568.06 467.931C568.14 468.105 576.192 485.653 573.245 507.472C573.217 507.669 573.036 507.807 572.84 507.78L572.716 507.74Z" fill="#A1A8CE"/>
<path d="M599.757 463.169L599.733 463.155C599.568 463.047 599.52 462.824 599.628 462.659C609.217 447.853 619.62 440.929 619.724 440.861C619.889 440.752 620.112 440.8 620.221 440.965C620.329 441.132 620.284 441.355 620.119 441.463C620.016 441.529 609.733 448.379 600.231 463.049C600.128 463.207 599.92 463.257 599.757 463.169Z" fill="#A1A8CE"/>
<path d="M592.545 483.916L592.439 483.827C592.313 483.673 592.337 483.447 592.491 483.321C599.893 477.288 612.531 474.695 612.657 474.669C612.853 474.631 613.041 474.756 613.081 474.951C613.12 475.144 612.993 475.335 612.8 475.373C612.675 475.399 600.208 477.959 592.944 483.877C592.828 483.972 592.671 483.983 592.545 483.916Z" fill="#A1A8CE"/>
<path d="M569.937 525.421L569.849 525.355C569.712 525.209 569.719 524.983 569.861 524.847C584.233 511.225 603.536 509.213 603.729 509.195C603.927 509.176 604.103 509.32 604.121 509.519C604.14 509.716 603.996 509.891 603.799 509.911C603.608 509.928 584.543 511.92 570.357 525.367C570.241 525.477 570.071 525.495 569.937 525.421Z" fill="#A1A8CE"/>
<path d="M551.487 557.977L551.38 557.889C551.255 557.736 551.279 557.509 551.432 557.384C566.735 544.945 588.473 540.239 588.692 540.193C588.885 540.151 589.076 540.276 589.117 540.469C589.157 540.664 589.033 540.855 588.84 540.895C588.624 540.941 567.051 545.615 551.885 557.941C551.769 558.034 551.612 558.045 551.487 557.977Z" fill="#A1A8CE"/>
<path d="M551.931 545.903C551.805 545.833 551.727 545.693 551.747 545.541C554.581 523.351 546.983 506.039 546.907 505.867C546.825 505.687 546.907 505.473 547.087 505.392C547.268 505.311 547.481 505.393 547.563 505.573C547.64 505.748 555.319 523.232 552.459 545.633C552.433 545.829 552.253 545.969 552.056 545.943L551.931 545.903Z" fill="#A1A8CE"/>
<path d="M590.181 473.673C590.055 473.604 589.976 473.463 589.997 473.309C591.532 461.924 586.133 451.867 586.079 451.767C585.983 451.592 586.048 451.375 586.221 451.28C586.396 451.185 586.615 451.249 586.709 451.423C586.764 451.525 592.277 461.781 590.708 473.407C590.683 473.603 590.501 473.741 590.305 473.713L590.181 473.673Z" fill="#A1A8CE"/>
<path d="M235.751 186.303V362.481H59.5708V186.303H235.751Z" fill="#D4D4EA"/>
<path d="M86.7839 186.303L59.5708 213.517V187.18L60.45 186.303H86.7839Z" fill="#F1EDF8"/>
<path d="M235.751 204.227V226.236L99.5073 362.481H77.4963L235.751 204.227Z" fill="#F1EDF8"/>
<path d="M191.877 186.303L59.5708 318.608V263.951L137.223 186.303H191.877Z" fill="#F1EDF8"/>
<path d="M235.751 284.755V344.805L218.076 362.481H158.024L235.751 284.755Z" fill="#F1EDF8"/>
<path d="M235.751 226.503H59.5703V220.597H235.751V226.503Z" fill="#9BA0C5"/>
<path d="M62.5229 359.709H232.799V189.435H62.5229V359.709ZM238.704 365.616H56.6172V183.528H238.704V365.616Z" fill="#B1B3D3"/>
<path d="M563.988 572.367H542.82V129.54H563.988V572.367Z" fill="#385BAA"/>
<path d="M287.548 572.367H557.576V123.415H287.548V572.367Z" fill="#1C274A"/>
<path d="M333.784 538.214H508.165V510.167H333.784V538.214ZM509.932 541.747H332.019C331.043 541.747 330.252 540.955 330.252 539.979V508.4C330.252 507.424 331.043 506.635 332.019 506.635H509.932C510.908 506.635 511.697 507.424 511.697 508.4V539.979C511.697 540.955 510.908 541.747 509.932 541.747Z" fill="#385BAA"/>
<path d="M538.023 158.483V406.879C538.023 408.973 536.324 410.672 534.229 410.672H310.897C308.801 410.672 307.103 408.973 307.103 406.879V158.483C307.103 156.385 308.801 154.688 310.897 154.688H534.229C536.324 154.688 538.023 156.385 538.023 158.483Z" fill="#D4D4EA"/>
<path d="M401.427 154.688L307.103 249.015V220.904L373.317 154.688H401.427Z" fill="#F1EDF8"/>
<path d="M538.023 196.231V219.723L347.073 410.672H323.581L538.023 196.231Z" fill="#F1EDF8"/>
<path d="M513.604 154.688L307.103 361.187V302.847L455.264 154.688H513.604Z" fill="#F1EDF8"/>
<path d="M538.023 194.277V161.857L542.292 161.823L542.296 180.389C542.296 185.54 540.72 190.321 538.023 194.277Z" fill="#17203B"/>
<path d="M517.593 205.091C504.133 205.091 493.184 194.315 492.904 180.923C492.764 187.531 490.029 193.5 485.673 197.852C481.207 202.324 475.029 205.091 468.211 205.091C466.66 205.091 465.123 204.948 463.617 204.675L506.172 162.12L538.023 161.857V194.277C537.147 195.561 536.155 196.757 535.059 197.852C530.592 202.324 524.413 205.091 517.593 205.091Z" fill="#9699C6"/>
<path d="M307.103 202.235C299.275 198.089 293.941 189.861 293.941 180.389V163.956L294.023 163.869L307.103 163.761V202.235Z" fill="#17203B"/>
<path d="M367.979 205.091C363.141 205.091 358.629 203.7 354.82 201.296L393.061 163.053L442.329 162.647H442.376L442.661 162.644L447.345 162.605L407.092 202.859C398.763 199.043 392.919 190.728 392.672 181.028C392.505 187.596 389.776 193.525 385.444 197.852C380.977 202.324 374.804 205.091 367.979 205.091ZM318.641 205.091C314.473 205.091 310.547 204.057 307.103 202.235V163.761L343.265 163.464H343.344L364.719 163.287L343.604 184.401C343.457 183.504 343.359 182.588 343.311 181.661C343.251 182.836 343.109 183.988 342.891 185.115L323.367 204.639C321.837 204.935 320.257 205.091 318.641 205.091Z" fill="#9699C6"/>
<path d="M323.367 204.639L342.891 185.115C341.936 190.04 339.517 194.444 336.107 197.852C332.696 201.264 328.293 203.684 323.367 204.639ZM354.82 201.296C348.963 197.6 344.765 191.511 343.604 184.401L364.719 163.287L392.664 163.056H392.68L393.061 163.053L354.82 201.296Z" fill="#AAA8D7"/>
<path d="M417.364 205.091C413.699 205.091 410.22 204.292 407.092 202.859L447.345 162.605L492.896 162.229L506.172 162.12L463.617 204.675C452.248 202.609 442.636 193.109 442.039 181.535C441.748 187.9 439.049 193.636 434.829 197.852C430.361 202.324 424.187 205.091 417.364 205.091Z" fill="#AAA8D7"/>
<path d="M538.023 211.613H307.103V206.404H538.023V211.613Z" fill="#1C274A"/>
<path d="M538.023 282.183V346.28L473.631 410.672H409.532L538.023 282.183Z" fill="#F1EDF8"/>
<path d="M480.783 335.667H422.077L484.228 273.516V332.221C484.228 334.124 482.687 335.667 480.783 335.667ZM398.585 335.667H367.097C365.193 335.667 363.652 334.124 363.652 332.221V304.637L400.828 267.463H466.791L398.585 335.667Z" fill="#9699C6"/>
<path d="M422.077 335.667H398.585L466.791 267.463H480.783C482.687 267.463 484.228 269.004 484.228 270.908V273.516L422.077 335.667Z" fill="#AAA8D7"/>
<path d="M363.652 304.637V270.908C363.652 269.004 365.193 267.463 367.097 267.463H400.828L363.652 304.637Z" fill="#AAA8D7"/>
<path d="M478.028 333.135H364.341C362.439 333.135 360.896 331.592 360.896 329.689V268.376C360.896 266.472 362.439 264.929 364.341 264.929H478.028C479.929 264.929 481.472 266.472 481.472 268.376V329.689C481.472 331.592 479.929 333.135 478.028 333.135Z" fill="#1C274A"/>
<path d="M368.512 270.715H473.857C474.867 270.715 475.688 271.535 475.688 272.547V294.711H366.681V272.547C366.681 271.535 367.501 270.715 368.512 270.715Z" fill="#F35B5B"/>
<path d="M366.681 294.711H475.688V326.736C475.688 327.748 474.867 328.568 473.857 328.568H368.512C367.501 328.568 366.681 327.748 366.681 326.736V294.711Z" fill="white"/>
<path d="M390.505 312.447C390.505 309.057 388.328 307.005 385.623 307.005C382.917 307.005 380.741 309.057 380.741 312.447C380.741 315.836 382.917 317.889 385.623 317.889C388.328 317.889 390.505 315.836 390.505 312.447ZM373.341 312.447C373.341 305.856 378.533 301.067 385.623 301.067C392.712 301.067 397.905 305.856 397.905 312.447C397.905 319.039 392.712 323.828 385.623 323.828C378.533 323.828 373.341 319.039 373.341 312.447Z" fill="#1C274A"/>
<path d="M413.576 309.773C413.576 308.188 412.611 307.224 410.589 307.224H407.917V312.323H410.589C412.611 312.323 413.576 311.359 413.576 309.773ZM420.975 309.773C420.975 314.811 417.12 317.981 411.056 317.981H407.917V323.331H400.579V301.564H411.056C417.12 301.564 420.975 304.736 420.975 309.773Z" fill="#1C274A"/>
<path d="M441.467 317.796V323.331H423.369V301.564H441.061V307.099H430.584V309.649H439.787V314.935H430.584V317.796H441.467Z" fill="#1C274A"/>
<path d="M465.749 301.564V323.331H459.717L451.445 313.443V323.331H444.295V301.564H450.327L458.597 311.452V301.564H465.749Z" fill="#1C274A"/>
<path d="M383.584 282.303V285.812H380.321V282.26L376.673 276.139H380.115L382.089 279.483L384.081 276.139H387.232L383.584 282.303Z" fill="white"/>
<path d="M395.691 283.352V285.812H387.645V276.139H395.511V278.597H390.853V279.731H394.944V282.081H390.853V283.352H395.691Z" fill="white"/>
<path d="M396.34 285.039L397.389 282.661C398.303 283.2 399.519 283.545 400.583 283.545C401.509 283.545 401.84 283.352 401.84 283.02C401.84 281.804 396.491 282.785 396.491 279.179C396.491 277.381 397.997 275.917 400.997 275.917C402.297 275.917 403.637 276.193 404.645 276.76L403.664 279.123C402.711 278.639 401.812 278.404 400.969 278.404C400.016 278.404 399.712 278.681 399.712 279.012C399.712 280.173 405.06 279.205 405.06 282.772C405.06 284.541 403.555 286.033 400.555 286.033C398.937 286.033 397.307 285.633 396.34 285.039Z" fill="white"/>
<path d="M405.585 284.292C405.585 283.365 406.332 282.661 407.411 282.661C408.488 282.661 409.235 283.365 409.235 284.292C409.235 285.204 408.488 285.951 407.411 285.951C406.332 285.951 405.585 285.204 405.585 284.292ZM405.544 276.139H409.276L408.653 282.108H406.167L405.544 276.139Z" fill="white"/>
<path d="M430.255 276.139L427.159 285.812H423.663L422.101 280.643L420.457 285.812H416.96L413.864 276.139H417.223L418.909 281.639L420.692 276.139H423.691L425.376 281.708L427.159 276.139H430.255Z" fill="white"/>
<path d="M439.019 283.352V285.812H430.973V276.139H438.839V278.597H434.181V279.731H438.272V282.081H434.181V283.352H439.019Z" fill="white"/>
<path d="M443.413 277.188C443.413 277.631 443.359 277.963 442.873 278.999L441.907 281.057H439.972L440.663 278.723C440.109 278.46 439.764 277.92 439.764 277.188C439.764 276.111 440.537 275.419 441.588 275.419C442.639 275.419 443.413 276.111 443.413 277.188Z" fill="white"/>
<path d="M448.927 278.653H447.739V280.92H448.927C449.825 280.92 450.253 280.491 450.253 279.787C450.253 279.083 449.825 278.653 448.927 278.653ZM448.624 283.38H447.739V285.812H444.476V276.139H449.135C451.829 276.139 453.543 277.548 453.543 279.787C453.543 281.183 452.88 282.232 451.719 282.827L453.751 285.812H450.268L448.624 283.38Z" fill="white"/>
<path d="M462.817 283.352V285.812H454.773V276.139H462.639V278.597H457.98V279.731H462.071V282.081H457.98V283.352H462.817Z" fill="white"/>
<path d="M478.325 267.428C478.129 267.428 477.931 267.368 477.759 267.245L421.083 226.697L364.407 267.245C363.969 267.559 363.36 267.457 363.045 267.02C362.733 266.583 362.833 265.972 363.272 265.66L420.516 224.705C420.855 224.463 421.311 224.463 421.649 224.705L478.893 265.66C479.332 265.972 479.432 266.583 479.12 267.02C478.928 267.285 478.629 267.428 478.325 267.428Z" fill="#1C274A"/>
<path d="M426.259 225.651C426.259 228.509 423.941 230.828 421.083 230.828C418.224 230.828 415.907 228.509 415.907 225.651C415.907 222.792 418.224 220.475 421.083 220.475C423.941 220.475 426.259 222.792 426.259 225.651Z" fill="#EA8923"/>
<path d="M538.021 392.251H504.491C503.448 392.251 502.603 391.407 502.603 390.363V381.699L538.023 346.28L538.021 392.251ZM502.603 317.601V303.14C502.603 302.097 503.448 301.252 504.491 301.252H518.952L502.603 317.601Z" fill="#9699C6"/>
<path d="M502.603 381.699V317.601L518.952 301.252H538.021V346.281L502.603 381.699Z" fill="#AAA8D7"/>
<path d="M310.028 559.064H535.096V435.851H310.028V559.064ZM536.861 562.596H308.261C307.287 562.596 306.496 561.805 306.496 560.829V434.084C306.496 433.108 307.287 432.317 308.261 432.317H536.861C537.839 432.317 538.629 433.108 538.629 434.084V560.829C538.629 561.805 537.839 562.596 536.861 562.596Z" fill="#385BAA"/>
<path d="M542.844 384.865H511.279C509.204 384.865 507.523 383.184 507.523 381.109V303.487C507.523 301.412 509.204 299.729 511.279 299.729H542.844C544.919 299.729 546.601 301.412 546.601 303.487V381.109C546.601 383.184 544.919 384.865 542.844 384.865Z" fill="#C66027"/>
<path d="M542.004 382.793V300.672C542.004 298.22 540.017 296.232 537.564 296.232H504.673C502.221 296.232 500.233 298.22 500.233 300.672V382.793C500.233 385.245 502.221 387.232 504.673 387.232H537.564C540.017 387.232 542.004 385.245 542.004 382.793Z" fill="#EA8923"/>
<path d="M507.836 303.325C507.555 303.325 507.327 303.555 507.327 303.835V379.631C507.327 379.911 507.555 380.139 507.836 380.139H534.403C534.683 380.139 534.912 379.911 534.912 379.631V303.835C534.912 303.555 534.683 303.325 534.403 303.325H507.836ZM534.403 381.497H507.836C506.805 381.497 505.968 380.66 505.968 379.631V303.835C505.968 302.805 506.805 301.967 507.836 301.967H534.403C535.431 301.967 536.269 302.805 536.269 303.835V379.631C536.269 380.66 535.431 381.497 534.403 381.497Z" fill="#C66027"/>
<path d="M293.887 152.732L293.804 152.819L293.82 169.251C293.82 176.075 291.055 182.248 286.584 186.716C282.116 191.188 275.941 193.952 269.119 193.952C256.412 193.952 245.943 184.353 244.576 172.013C244.469 171.107 244.419 170.185 244.419 169.251V153.143L304.723 92.84C306.493 91.068 308.895 90.0747 311.399 90.0747H355.523L293.887 152.732Z" fill="#F35B5B"/>
<path d="M293.804 152.819L293.82 169.251C293.82 176.075 291.055 182.248 286.584 186.716C282.116 191.188 275.941 193.952 269.119 193.952C256.412 193.952 245.943 184.353 244.576 172.013L244.419 153.143L293.887 152.732L293.804 152.819Z" fill="#DF3C3E"/>
<path d="M454.323 90.0747L392.621 151.776V169.251C392.621 176.075 389.857 182.248 385.385 186.716C380.917 191.188 374.744 193.952 367.92 193.952C354.28 193.952 343.22 182.892 343.22 169.251L343.204 152.327L404.907 90.0747H454.323Z" fill="#F35B5B"/>
<path d="M392.621 151.92V169.251C392.621 176.075 389.857 182.248 385.385 186.716C380.917 191.188 374.744 193.952 367.92 193.952C354.28 193.952 343.22 182.892 343.22 169.251L343.204 152.327L392.621 151.92Z" fill="#DF3C3E"/>
<path d="M492.895 151.092L492.911 169.251C492.911 176.075 490.145 182.248 485.675 186.716C481.207 191.188 475.028 193.952 468.209 193.952C454.569 193.952 442.007 182.892 442.007 169.251L442.112 151.776L442.377 151.511L503.708 90.0747H554.612L492.895 151.092Z" fill="#F35B5B"/>
<path d="M492.911 169.251C492.911 176.075 490.145 182.248 485.675 186.716C481.207 191.188 475.028 193.952 468.209 193.952C454.569 193.952 442.007 182.892 442.007 169.251L442.112 151.776L442.377 151.511L492.895 151.092L492.911 169.251Z" fill="#DF3C3E"/>
<path d="M542.291 150.683V150.687L542.295 169.251C542.295 176.075 539.531 182.249 535.059 186.715C530.592 191.188 524.415 193.951 517.593 193.951C503.955 193.951 492.893 182.893 492.893 169.251V151.092L554.395 90.2894C555.224 90.448 556.024 90.6947 556.783 91.0187C560.441 92.6014 563.159 95.9561 563.827 99.9934C563.935 100.625 563.988 101.279 563.988 101.941V129.371L542.291 150.683Z" fill="white"/>
<path d="M542.296 169.251C542.296 176.075 539.531 182.248 535.059 186.716C530.591 191.188 524.415 193.952 517.595 193.952C503.955 193.952 492.895 182.892 492.895 169.251V151.092L542.292 150.687L542.296 169.251Z" fill="#B1B3D3"/>
<path d="M404.907 90.0747L343.204 152.327V169.251C343.204 176.075 340.44 182.248 335.969 186.716C331.5 191.188 325.327 193.952 318.504 193.952C304.863 193.952 293.804 182.892 293.804 169.251V152.819L293.887 152.732L355.523 90.0747H404.907Z" fill="white"/>
<path d="M343.204 152.327V169.251C343.204 176.075 340.44 182.248 335.969 186.716C331.5 191.188 325.327 193.952 318.504 193.952C304.863 193.952 293.804 182.892 293.804 169.251V152.819L293.887 152.732L343.204 152.327Z" fill="#B1B3D3"/>
<path d="M503.708 90.0747L442.007 151.776V169.251C442.007 176.075 439.241 182.248 434.769 186.716C430.303 191.188 424.128 193.952 417.305 193.952C403.665 193.952 392.605 182.892 392.605 169.251V151.776L454.323 90.0747H503.708Z" fill="white"/>
<path d="M442.272 151.511L442.007 151.776V169.251C442.007 176.075 439.241 182.248 434.769 186.716C430.303 191.188 424.128 193.952 417.305 193.952C403.665 193.952 392.605 182.892 392.605 169.251V151.92L442.272 151.511Z" fill="#B1B3D3"/>
<path d="M581.732 602.375H270.083C268.799 602.375 267.759 601.335 267.759 600.052V578.481C267.759 575.105 270.496 572.367 273.872 572.367H577.941C581.317 572.367 584.055 575.105 584.055 578.481V600.052C584.055 601.335 583.016 602.375 581.732 602.375Z" fill="#4B73C2"/>
<path d="M572.251 602.375H260.601C259.317 602.375 258.277 601.335 258.277 600.052V578.481C258.277 575.105 261.015 572.367 264.391 572.367H568.461C571.837 572.367 574.575 575.105 574.575 578.481V600.052C574.575 601.335 573.533 602.375 572.251 602.375Z" fill="#385BAA"/>
<path d="M602.785 616.998H249.029V596.365C249.029 593.317 251.5 590.847 254.549 590.847H597.264C600.313 590.847 602.785 593.317 602.785 596.365V616.998Z" fill="#5D8ED1"/>
<path d="M593.339 616.998H239.584V596.365C239.584 593.317 242.056 590.847 245.104 590.847H587.819C590.867 590.847 593.339 593.317 593.339 596.365V616.998Z" fill="#4B73C2"/>
<path d="M72.5171 574.312C72.5171 574.312 58.2114 577.481 60.3368 567.502C62.463 557.52 62.3067 553.84 56.492 549.304C50.6786 544.767 44.8275 542.527 49.2802 535.343C53.7316 528.16 45.2843 522.576 40.9182 518.709C36.552 514.843 41.4811 511.927 42.6363 504.619C43.7936 497.309 35.9302 498.408 35.313 489.201C34.6958 479.995 44.0478 469.236 36.0072 456.565C36.0072 456.565 46.8072 462.165 50.3546 472.004C53.9026 481.841 51.0384 489.441 57.4187 493.181C63.7988 496.92 67.7926 503.389 65.625 510.028C63.4578 516.665 66.5374 520.185 71.7676 525.028C76.9978 529.868 75.6056 531.792 74.9551 537.712C74.304 543.632 75.6103 542.232 81.5983 550.319C87.5863 558.407 87.739 571.659 72.5171 574.312Z" fill="#27459A"/>
<path d="M74.5548 573.869L74.4818 573.716L45.8574 486.835C45.7345 486.463 45.9376 486.059 46.31 485.936L46.3236 485.932C46.6928 485.817 47.0892 486.021 47.211 486.391L75.835 573.269L75.8709 573.481L74.5548 573.869Z" fill="#1C274A"/>
<path d="M98.3304 574.132C98.3304 574.132 112.559 577.284 110.445 567.357C108.331 557.428 108.486 553.768 114.269 549.255C120.053 544.744 125.873 542.515 121.444 535.368C117.015 528.224 125.418 522.669 129.761 518.824C134.104 514.977 129.201 512.079 128.052 504.807C126.901 497.537 134.723 498.631 135.336 489.472C135.949 480.315 126.648 469.612 134.645 457.009C134.645 457.009 123.903 462.58 120.375 472.365C116.846 482.152 119.694 489.711 113.348 493.431C107.002 497.151 103.029 503.584 105.185 510.188C107.341 516.791 104.277 520.292 99.0752 525.108C93.873 529.924 95.258 531.837 95.9048 537.725C96.5522 543.614 95.2528 542.221 89.2965 550.265C83.3408 558.309 83.1892 571.493 98.3304 574.132Z" fill="#27459A"/>
<path d="M94.9932 573.305L95.0292 573.093L123.502 486.676C123.623 486.308 124.017 486.107 124.384 486.22L124.398 486.224C124.768 486.347 124.97 486.748 124.847 487.119L96.375 573.539L96.3026 573.692L94.9932 573.305Z" fill="#1C274A"/>
<path d="M82.5286 572.324C82.5286 572.324 66.1546 570.969 71.7464 560.984C77.3369 551 78.3926 547.005 73.6713 540.216C68.9505 533.427 63.4276 529.084 70.5817 522.868C77.7364 516.653 70.5426 507.867 67.1505 502.276C63.7584 496.685 70.0052 495.199 73.6713 487.753C77.3369 480.309 68.551 478.875 70.9473 468.809C73.3432 458.745 86.9328 450.325 82.5286 434.084C82.5286 434.084 92.2369 443.669 92.7688 455.385C93.3021 467.1 87.7104 474.289 93.3021 480.415C98.8932 486.537 101.023 494.792 96.4969 501.183C91.9708 507.573 94.1005 512.364 98.0942 519.288C102.088 526.211 99.9584 527.808 97.2958 533.932C94.6328 540.056 96.4969 538.991 100.225 549.641C103.952 560.293 99.7136 574.538 82.5286 572.324Z" fill="#4F64B8"/>
<path d="M84.8588 572.528L84.8317 572.339L83.0265 469.776C83.0188 469.337 83.3702 468.972 83.8093 468.964H83.8254C84.2588 468.964 84.6156 469.312 84.6245 469.751L86.4297 572.308L86.3973 572.548L84.8588 572.528Z" fill="#27459A"/>
<path d="M130.198 568.859L129.013 572.002L128.264 573.995L126.115 579.7L125.364 581.693L123.156 587.553L122.408 589.541L112.938 614.686C95.4145 617.275 78.1614 617.362 61.2078 614.686L51.7379 589.541L50.9901 587.553L48.7817 581.693L48.0306 579.7L45.8806 573.995L45.1327 572.002L43.9473 568.859C43.1343 566.701 44.7265 564.403 47.0302 564.403H127.116C129.416 564.403 131.008 566.701 130.198 568.859Z" fill="#EA8923"/>
<path d="M129.013 572.002L128.264 573.995H45.8803L45.1323 572.002H129.013Z" fill="#C66027"/>
<path d="M126.115 579.7L125.364 581.693H48.7812L48.0303 579.7H126.115Z" fill="#C66027"/>
<path d="M123.155 587.553L122.407 589.541H51.7374L50.989 587.553H123.155Z" fill="#C66027"/>
<path d="M204.924 221.091L205.408 221.791L205.932 222.537L207.004 224.041C207.725 225.047 208.456 226.052 209.193 227.053C210.667 229.056 212.165 231.045 213.684 233.012C216.72 236.944 219.835 240.795 223.029 244.476C226.22 248.145 229.508 251.68 232.812 254.733C234.455 256.249 236.116 257.648 237.628 258.725C238.379 259.263 239.092 259.716 239.648 260.023C239.923 260.176 240.16 260.295 240.311 260.369C240.457 260.441 240.525 260.472 240.431 260.476L240.151 260.479L239.897 260.489L239.695 260.505C239.509 260.516 239.305 260.543 239.139 260.567C238.449 260.669 237.972 260.837 237.657 260.968C237.341 261.099 237.168 261.204 237.067 261.275C236.872 261.417 236.967 261.396 237.12 261.296C237.287 261.184 237.535 260.988 237.809 260.74C238.367 260.237 239.028 259.539 239.692 258.768C240.36 257.993 241.043 257.135 241.721 256.236C243.081 254.435 244.427 252.471 245.741 250.444C247.056 248.417 248.345 246.321 249.609 244.191C252.136 239.924 254.567 235.519 256.924 231.057C258.103 228.827 259.263 226.579 260.403 224.321L262.095 220.929L263.728 217.572L263.804 217.417C265.915 213.08 271.141 211.275 275.479 213.385C279.619 215.399 281.441 220.28 279.765 224.489L279.009 226.373L278.26 228.212L276.739 231.865C275.713 234.295 274.667 236.715 273.596 239.131C271.451 243.961 269.213 248.768 266.799 253.568C265.588 255.969 264.333 258.367 262.999 260.771C261.661 263.175 260.252 265.58 258.667 268.019C257.871 269.239 257.032 270.467 256.1 271.719C255.164 272.972 254.152 274.245 252.9 275.584C252.269 276.256 251.576 276.945 250.753 277.663C249.912 278.383 248.967 279.135 247.648 279.915C246.985 280.301 246.231 280.693 245.313 281.056C244.396 281.417 243.292 281.757 241.963 281.945C241.637 281.993 241.272 282.028 240.925 282.053L240.715 282.065L240.556 282.073L240.24 282.084C240.025 282.092 239.82 282.093 239.62 282.091C239.42 282.088 239.212 282.087 239.017 282.079C238.235 282.047 237.503 281.969 236.816 281.864C234.089 281.425 232.063 280.648 230.277 279.864C228.5 279.068 226.979 278.217 225.561 277.352C222.743 275.617 220.34 273.812 218.057 271.977C213.525 268.304 209.528 264.497 205.679 260.617C201.841 256.735 198.195 252.777 194.649 248.755C192.877 246.743 191.132 244.716 189.408 242.665C188.545 241.64 187.689 240.609 186.835 239.569L185.555 237.999L184.912 237.199L184.237 236.348C179.827 230.781 180.763 222.693 186.329 218.281C191.896 213.871 199.984 214.807 204.395 220.373C204.563 220.585 204.723 220.8 204.875 221.019L204.924 221.091Z" fill="#F78F75"/>
<path d="M271.892 228.085C271.892 228.085 281.305 229.491 285.719 225.553C290.667 221.139 285.701 207.859 282.9 204.916C279.396 201.233 272.887 206.18 272.887 206.18C272.887 206.18 270.429 196.985 268.035 197.713C264.917 198.661 268.747 205.955 264.196 212.612C263.177 214.103 263.18 216.08 263.427 217.867C263.895 221.247 265.656 226.361 271.892 228.085Z" fill="#F78F75"/>
<path d="M276.495 221.335C276.488 221.149 276.576 220.964 276.743 220.852C276.911 220.739 280.907 218.08 284.241 217.86C284.551 217.839 284.817 218.073 284.837 218.381C284.857 218.685 284.624 218.957 284.315 218.977C281.277 219.179 277.405 221.756 277.367 221.783C277.111 221.955 276.761 221.887 276.589 221.629L276.495 221.335Z" fill="#E16748"/>
<path d="M274.031 216.827C274.025 216.655 274.099 216.483 274.244 216.369C274.388 216.256 277.8 213.612 282.611 213.431C282.92 213.419 283.18 213.66 283.192 213.971L283.193 213.973C283.201 214.281 282.961 214.539 282.653 214.551C278.219 214.719 274.969 217.224 274.937 217.251C274.693 217.441 274.341 217.399 274.151 217.155L274.031 216.827Z" fill="#E16748"/>
<path d="M273.013 211.639C273.008 211.469 273.081 211.3 273.223 211.185C273.347 211.085 276.304 208.751 280.828 208.56C281.137 208.548 281.399 208.788 281.412 209.097C281.431 209.413 281.184 209.667 280.875 209.68C276.733 209.855 273.952 212.037 273.924 212.059C273.683 212.252 273.331 212.213 273.137 211.972L273.013 211.639Z" fill="#E16748"/>
<path d="M268.035 220.761C268.028 220.525 268.172 220.301 268.407 220.217C272.053 218.917 273.329 215 273.341 214.96C273.435 214.665 273.749 214.501 274.044 214.593C274.339 214.687 274.504 215 274.411 215.296C274.355 215.477 272.967 219.781 268.783 221.273C268.492 221.376 268.171 221.224 268.068 220.933L268.035 220.761Z" fill="#E16748"/>
<path d="M272.961 212.467C272.916 210.985 273.071 209.443 273.512 207.872C273.596 207.575 273.905 207.401 274.203 207.484C274.5 207.568 274.675 207.877 274.591 208.175C272.216 216.637 278.977 224.631 279.047 224.711C279.248 224.944 279.221 225.299 278.987 225.5C278.752 225.701 278.399 225.676 278.197 225.441C277.952 225.157 273.176 219.521 272.961 212.467Z" fill="#E16748"/>
<path d="M236.879 268.623C236.593 268.623 236.336 268.424 236.275 268.135C235.293 263.599 237.675 259.465 237.777 259.292C237.949 258.997 238.329 258.897 238.624 259.071C238.919 259.244 239.019 259.623 238.845 259.917C238.823 259.956 236.609 263.819 237.485 267.873C237.557 268.208 237.344 268.537 237.011 268.609L236.879 268.623Z" fill="#E16748"/>
<path d="M234.501 265.096L234.303 265.063C233.979 264.953 233.805 264.601 233.915 264.277C233.949 264.175 234.799 261.743 237.551 259.823C237.832 259.627 238.217 259.695 238.413 259.976C238.609 260.256 238.54 260.643 238.259 260.839C235.837 262.528 235.095 264.655 235.088 264.676C235 264.933 234.76 265.096 234.501 265.096Z" fill="#E16748"/>
<path d="M198.369 216.145C198.369 216.145 202.849 216.676 208.708 222.479C214.565 228.281 224.949 243.705 224.949 243.705C224.949 243.705 222.088 256.991 211.913 272.719C211.913 272.719 197.616 254.013 196.393 245.424C195.172 236.833 198.369 216.145 198.369 216.145Z" fill="#4F64B8"/>
<path d="M242.016 255.865C231.497 256.472 222.471 263.383 216.359 275.887C211.787 285.239 210.315 294.317 210.253 294.7C210.109 295.616 210.735 296.476 211.651 296.621C212.567 296.765 213.427 296.141 213.572 295.225C213.587 295.136 215.043 286.197 219.409 277.295C224.348 267.223 231.167 261.257 238.997 259.605C240.067 258.361 241.009 257.161 242.016 255.865Z" fill="#1C274A"/>
<path d="M276.673 294.589C276.583 294.188 274.372 284.64 269.129 275.059C266.799 270.803 263.852 266.992 261.088 264.123C260.464 265.092 259.964 266.067 259.307 267.013C269.031 277.591 273.34 295.083 273.399 295.336C273.576 296.115 274.268 296.641 275.035 296.641C275.159 296.641 275.284 296.628 275.409 296.6C276.313 296.393 276.88 295.493 276.673 294.589Z" fill="#1C274A"/>
<path d="M291.253 299.444H195.695C194.508 299.444 193.545 298.481 193.545 297.295V295.919C193.545 294.732 194.508 293.769 195.695 293.769H291.253C292.441 293.769 293.404 294.732 293.404 295.919V297.295C293.404 298.481 292.441 299.444 291.253 299.444Z" fill="#F35B5B"/>
<path d="M278.556 336.119C278.473 337.805 277.079 339.116 275.408 339.116L275.249 339.112C273.511 339.028 272.169 337.545 272.256 335.805L273.604 308.563C273.691 306.823 275.169 305.483 276.911 305.569C278.651 305.653 279.993 307.136 279.907 308.876L278.556 336.119ZM262.824 336.04C262.783 337.753 261.379 339.116 259.672 339.116H259.592C257.852 339.072 256.473 337.625 256.517 335.884L257.193 308.643C257.235 306.899 258.691 305.529 260.424 305.565C262.165 305.609 263.541 307.056 263.5 308.796L262.824 336.04ZM247.091 335.961C247.091 337.704 245.677 339.116 243.936 339.116C242.193 339.116 240.781 337.704 240.781 335.961V308.72C240.781 306.976 242.193 305.565 243.936 305.565C245.677 305.565 247.091 306.976 247.091 308.72V335.961ZM228.28 339.116H228.197C226.492 339.116 225.091 337.753 225.048 336.04L224.373 308.796C224.331 307.056 225.707 305.609 227.448 305.565H227.528C229.233 305.565 230.639 306.927 230.68 308.643L231.356 335.884C231.397 337.625 230.021 339.072 228.28 339.116ZM212.621 339.112L212.463 339.116C210.795 339.116 209.399 337.805 209.315 336.119L207.967 308.876C207.88 307.136 209.221 305.653 210.963 305.569C212.705 305.48 214.183 306.823 214.269 308.563L215.617 335.805C215.704 337.545 214.361 339.028 212.621 339.112ZM202.173 299.443L202.253 300.877L204.275 337.419C204.473 341.001 207.433 343.804 211.021 343.804H275.929C279.516 343.804 282.476 341.001 282.672 337.419L284.519 304.039L284.773 299.443H202.173Z" fill="#F35B5B"/>
<path d="M284.773 299.443L284.519 304.039L202.253 300.877L202.173 299.443H284.773Z" fill="#DF3C3E"/>
<path d="M135.677 322.108C135.677 322.108 127.936 363.843 151.296 369.208C174.655 374.576 202.2 368.185 216.323 360.055C226.74 354.057 216.323 331.96 216.323 331.96C216.323 331.96 165.131 326.843 135.677 322.108Z" fill="#F35B5B"/>
<path d="M231.475 582.599L232.737 592.069H248.521L247.259 582.599H231.475Z" fill="#F78F75"/>
<path d="M206.492 455.885C206.492 455.885 203.348 491.676 211.707 521.696C217.376 542.068 223.581 564.577 226.984 576.945C227.195 577.709 227.395 578.433 227.583 579.116C228.836 583.679 229.581 586.388 229.581 586.388L232.58 586.236L234.193 586.159L248.523 585.44L247.848 579.116L247.615 576.945L234.636 455.327L233.92 448.632L233.875 448.216L233.823 447.716L233.8 447.493L233.632 446.229L233.559 445.676L222.789 364.209L222.577 362.603L220.112 343.959L206.025 348.308L204.48 348.785L181.285 355.951C183.105 400.873 195.524 419.971 206.492 455.885Z" fill="#F35B5B"/>
<path d="M219.585 449.44C219.612 449.985 220.079 450.401 220.619 450.373C220.956 450.355 225.777 450.084 231.096 448.909C232.013 448.704 232.947 448.475 233.875 448.216L233.823 447.716L233.8 447.493L233.632 446.229C227.395 448.017 220.612 448.4 220.516 448.404C219.971 448.429 219.556 448.897 219.585 449.44Z" fill="#DF3C3E"/>
<path d="M247.848 579.116H227.583C227.395 578.433 227.195 577.709 226.984 576.945H247.613L247.848 579.116Z" fill="#DF3C3E"/>
<path d="M222.788 364.208C219.745 363.947 216.929 362.984 214.367 361.339C209.468 358.189 206.364 353.113 204.48 348.785C202.624 344.532 201.945 341.004 201.891 340.713C201.809 340.284 202.093 339.873 202.523 339.796C202.949 339.716 203.363 339.997 203.441 340.425C203.453 340.496 204.141 344.053 206.024 348.308C207.833 352.4 210.749 357.139 215.228 360.013C217.467 361.453 219.923 362.317 222.577 362.601L222.788 364.208Z" fill="#DF3C3E"/>
<path d="M232.361 579.116H230.732C230.553 578.427 230.365 577.701 230.168 576.945C226.459 562.615 219.812 536.786 215.452 518.917C209.364 493.967 211.056 454.791 211.209 451.556C189.799 409.04 186.628 366.845 186.597 366.421C186.568 365.988 186.896 365.609 187.332 365.581C187.765 365.552 188.143 365.876 188.175 366.313C188.205 366.733 191.363 408.748 212.713 451.031C212.775 451.155 212.805 451.291 212.797 451.429C212.775 451.84 210.719 492.86 216.983 518.543C221.383 536.569 228.109 562.701 231.8 576.945C231.997 577.704 232.185 578.428 232.361 579.116Z" fill="#DF3C3E"/>
<path d="M286.351 616.998H228.885C228.457 616.221 228.224 615.12 228.128 613.805C227.769 608.947 229.319 601.188 230.079 596.297C230.171 595.725 230.249 595.192 230.311 594.709C230.417 593.892 230.481 593.21 230.481 592.712C230.481 588.72 234.015 589.404 234.015 589.404C239.831 595.107 246.415 586.555 250.26 589.36C250.26 589.36 251.916 590.547 256.479 594.651C261.037 598.756 268.8 601.465 275.405 604.229C283.932 607.793 286.351 611.355 286.823 613.805C287.195 615.751 286.351 616.998 286.351 616.998Z" fill="#EA8923"/>
<path d="M286.351 616.998H228.885C228.457 616.221 228.224 615.12 228.128 613.805H286.823C287.195 615.751 286.351 616.998 286.351 616.998Z" fill="#C66027"/>
<path d="M251.119 591.8C251.119 591.8 252.144 589.292 254.425 590.089C256.705 590.886 256.477 594.649 256.477 594.649C256.477 594.649 255.109 598.071 251.119 591.8Z" fill="white"/>
<path d="M250.415 603.097C249.892 603.097 249.468 602.675 249.468 602.151C249.468 596.444 253.036 593.355 253.189 593.226C253.587 592.886 254.185 592.936 254.524 593.335C254.861 593.733 254.812 594.329 254.416 594.668C254.285 594.78 251.361 597.357 251.361 602.151C251.361 602.675 250.937 603.097 250.415 603.097Z" fill="white"/>
<path d="M262.357 595.656C262.133 595.656 261.909 595.579 261.729 595.417C260.527 594.351 256.996 594.151 255.053 594.277C254.531 594.308 254.081 593.915 254.047 593.392C254.013 592.871 254.409 592.42 254.931 592.386C255.527 592.348 260.807 592.068 262.985 594.002C263.377 594.348 263.413 594.947 263.065 595.337C262.879 595.549 262.619 595.656 262.357 595.656Z" fill="white"/>
<path d="M245.213 588.856H245.164C244.531 588.865 244.051 589.065 243.652 589.484C243.361 589.792 243.285 590.1 243.412 590.46C243.72 591.339 245.156 592.379 247.665 592.721C250.117 593.056 251.739 593.08 252.659 593.041C251.075 591.581 247.617 588.856 245.213 588.856ZM251.969 595.107C250.904 595.107 249.396 595.028 247.388 594.755C244.38 594.345 242.115 592.96 241.475 591.139C241.093 590.053 241.345 588.934 242.165 588.072C242.947 587.249 243.945 586.821 245.135 586.804H245.211C249.179 586.804 253.985 591.451 254.524 591.983L253.548 592.969L253.601 592.96L254.008 594.972C253.963 594.98 253.323 595.107 251.969 595.107Z" fill="white"/>
<path d="M255.576 594.067L254.699 592.212C256.588 591.317 258.395 588.963 258.277 587.543C258.251 587.197 258.104 586.769 257.213 586.515C256.593 586.339 256.288 586.489 256.091 586.641C255.101 587.408 254.791 590 254.827 591.453L252.775 591.508C252.761 591.017 252.707 586.669 254.833 585.021C255.4 584.581 256.372 584.139 257.777 584.541C259.84 585.132 260.257 586.571 260.324 587.375C260.529 589.899 257.988 592.927 255.576 594.067Z" fill="white"/>
<path d="M234.748 616.998H233.04C234.744 615.052 236.337 612.065 236.129 607.797C235.852 602.119 232.445 598.291 230.079 596.297C230.171 595.725 230.249 595.192 230.311 594.709C232.863 596.659 237.163 600.928 237.497 607.728C237.695 611.805 236.359 614.847 234.748 616.998Z" fill="#C66027"/>
<path d="M255.504 598.041C255.079 598.041 254.693 597.753 254.585 597.322C254.46 596.815 254.769 596.302 255.277 596.176L258.867 595.284C259.373 595.157 259.888 595.468 260.013 595.975C260.14 596.483 259.831 596.996 259.323 597.122L255.733 598.014L255.504 598.041Z" fill="white"/>
<path d="M259.093 600.129C258.668 600.129 258.283 599.84 258.176 599.409C258.049 598.903 258.359 598.388 258.867 598.262L262.456 597.371C262.964 597.244 263.477 597.553 263.604 598.062C263.729 598.569 263.42 599.084 262.912 599.208L259.323 600.1L259.093 600.129Z" fill="white"/>
<path d="M262.684 602.135C262.259 602.135 261.872 601.847 261.765 601.416C261.639 600.908 261.948 600.393 262.456 600.268L266.047 599.376C266.555 599.251 267.067 599.56 267.193 600.068C267.319 600.575 267.009 601.088 266.501 601.215L262.912 602.105L262.684 602.135Z" fill="white"/>
<path d="M266.597 603.989C266.172 603.989 265.785 603.7 265.679 603.269C265.553 602.763 265.863 602.25 266.369 602.124L269.96 601.232C270.468 601.105 270.981 601.416 271.108 601.922C271.233 602.429 270.924 602.944 270.416 603.069L266.827 603.962L266.597 603.989Z" fill="white"/>
<path d="M270.843 605.572C270.417 605.572 270.031 605.283 269.924 604.852C269.799 604.345 270.108 603.831 270.615 603.704L274.205 602.813C274.712 602.686 275.225 602.997 275.352 603.505C275.479 604.012 275.168 604.527 274.661 604.651L271.072 605.543L270.843 605.572Z" fill="white"/>
<path d="M141.528 582.599L140.861 592.069H156.644L157.311 582.599H141.528Z" fill="#F78F75"/>
<path d="M137.797 452.587C137.817 453.271 137.841 453.956 137.864 454.645L137.865 454.749C137.889 455.512 137.912 456.277 137.94 457.051C137.979 458.169 138.015 459.3 138.055 460.436L139.968 575.862L140.004 578.029L140.141 586.388H157.963C157.963 586.388 158.288 583.251 158.865 578.029C158.941 577.343 159.021 576.619 159.108 575.862C161.027 558.665 165.097 524.107 169.289 500.524C174.695 470.128 170.236 456.647 170.236 456.647C170.236 456.647 178.513 381.86 179.128 362.449L150.715 356.735L148.928 356.375L134.756 343.959C134.756 343.959 135.764 355.392 135.636 361.005C135.627 361.515 135.8 363.667 135.791 364.215C135.475 379.224 136.475 410.193 137.797 452.587Z" fill="#F35B5B"/>
<path d="M137.797 452.587C137.817 453.271 137.841 453.956 137.864 454.645C139.977 455.2 142.24 455.544 144.408 455.757C149.832 456.285 154.649 455.975 154.987 455.952C155.525 455.916 155.937 455.445 155.899 454.903C155.864 454.36 155.397 453.944 154.852 453.985C154.735 453.992 144.969 454.619 137.797 452.587Z" fill="#DF3C3E"/>
<path d="M159.108 575.862C159.021 576.619 158.94 577.343 158.864 578.029H140.004L139.968 575.862H159.108Z" fill="#DF3C3E"/>
<path d="M158.08 340.713C157.995 341.177 156.293 350 150.716 356.733C149.283 358.467 147.591 360.061 145.601 361.339C143.02 362.996 138.859 363.96 135.791 364.215C135.8 363.665 135.781 363.165 135.791 362.657C138.54 362.399 142.436 361.497 144.744 360.013C146.328 358.997 147.717 357.748 148.929 356.373C154.709 349.836 156.508 340.54 156.531 340.425C156.609 339.997 157.02 339.716 157.448 339.796C157.879 339.873 158.159 340.284 158.08 340.713Z" fill="#DF3C3E"/>
<path d="M156.485 578.029C156.573 577.339 156.664 576.614 156.759 575.862C159.649 552.88 165.773 503.803 167.199 489.544C168.996 471.557 167.116 457.067 166.928 455.692L177.017 369.617C177.067 369.184 176.757 368.795 176.327 368.739C175.893 368.695 175.5 369 175.448 369.433L165.349 455.608L165.352 455.815C165.372 455.964 167.493 470.771 165.629 489.388C164.201 503.672 158.047 552.971 155.165 575.862C155.071 576.614 154.981 577.339 154.895 578.029H156.485Z" fill="#DF3C3E"/>
<path d="M161.467 613.417C161.467 613.551 161.463 613.68 161.46 613.805C161.447 614.396 161.421 614.927 161.397 615.381C161.336 616.381 161.264 616.997 161.264 616.997H128.053C128.053 616.997 127.888 615.712 128.015 613.805C128.233 610.414 129.36 605.052 133.947 601.511C140.225 596.656 137.801 597.669 139.088 595.456C139.233 595.209 140.364 591.451 140.484 591.192C141.564 588.893 142.557 587.807 148.508 587.807C156.4 587.807 157.095 591.638 157.937 593.653C158.284 594.491 158.761 596.25 159.251 598.341C159.449 599.181 159.648 600.079 159.844 600.989C160.331 603.279 160.784 605.668 161.093 607.575C161.421 609.617 161.492 611.719 161.467 613.417Z" fill="#EA8923"/>
<path d="M161.467 613.417C161.467 613.551 161.463 613.68 161.46 613.805C161.447 614.396 161.421 614.927 161.397 615.381C159.777 614.245 158.623 612.745 157.947 610.909C155.892 605.31 159.052 598.593 159.184 598.309L159.251 598.341C159.449 599.181 159.648 600.079 159.844 600.989C159.096 603.275 158.233 607.117 159.431 610.368C159.865 611.552 160.548 612.572 161.467 613.417Z" fill="#C66027"/>
<path d="M161.46 613.805C161.416 615.696 161.264 616.997 161.264 616.997H128.053C128.053 616.997 127.888 615.712 128.015 613.805H161.46Z" fill="#C66027"/>
<path d="M138.852 583.444C138.664 583.444 138.435 583.52 138.139 583.792C137.647 584.244 137.632 584.603 137.675 584.865C137.919 586.388 140.739 588.386 143.307 589.803C142.136 586.915 140.437 583.836 139.067 583.474L138.852 583.444ZM145.016 592.668C144.884 592.668 144.751 592.64 144.625 592.584C143.784 592.203 136.383 588.762 135.805 585.167C135.689 584.45 135.777 583.388 136.857 582.397C137.88 581.456 138.887 581.468 139.551 581.643C142.901 582.528 145.443 589.952 145.917 591.431C146.032 591.788 145.925 592.179 145.645 592.427C145.469 592.584 145.244 592.668 145.016 592.668Z" fill="white"/>
<path d="M152.792 583.444L152.577 583.474C151.207 583.836 149.507 586.914 148.336 589.802C150.905 588.384 153.724 586.386 153.969 584.865C154.011 584.603 153.996 584.244 153.504 583.792C153.208 583.52 152.979 583.444 152.792 583.444ZM146.628 592.668C146.399 592.668 146.173 592.586 145.997 592.427C145.717 592.179 145.611 591.788 145.725 591.431C146.2 589.952 148.741 582.528 152.092 581.643C152.756 581.468 153.763 581.456 154.785 582.397C155.864 583.388 155.953 584.45 155.839 585.167C155.261 588.762 147.86 592.203 147.017 592.584C146.892 592.64 146.759 592.668 146.628 592.668Z" fill="white"/>
<path d="M145.792 589.901C145.792 589.901 144.247 589.171 144.127 591.292C144.028 593.009 145.252 593.379 145.752 593.089C145.752 593.089 146.805 593.405 147.331 592.564C147.857 591.722 147.509 589.052 145.792 589.901Z" fill="white"/>
<path d="M139 595.695C138.803 595.695 138.604 595.635 138.435 595.508C138.015 595.195 137.928 594.601 138.241 594.183C141.229 590.171 145.831 591.044 146.025 591.084C146.537 591.186 146.869 591.685 146.767 592.197C146.664 592.709 146.165 593.04 145.655 592.94C145.499 592.91 142.016 592.286 139.76 595.313C139.573 595.564 139.288 595.695 139 595.695Z" fill="white"/>
<path d="M153.511 596.65C153.149 596.65 152.805 596.444 152.647 596.095C151.113 592.72 145.755 591.901 145.701 591.893C145.184 591.817 144.825 591.338 144.901 590.82C144.976 590.303 145.459 589.944 145.975 590.02C146.237 590.057 152.415 591.005 154.372 595.31C154.588 595.788 154.377 596.35 153.901 596.565C153.775 596.622 153.641 596.65 153.511 596.65Z" fill="white"/>
<path d="M149.604 598.16L149.365 598.131C145.141 597.036 141.7 597.963 141.667 597.972C141.161 598.112 140.64 597.815 140.5 597.31C140.361 596.807 140.657 596.286 141.161 596.145C141.321 596.101 145.131 595.077 149.84 596.297C150.347 596.427 150.651 596.944 150.52 597.451C150.409 597.877 150.025 598.16 149.604 598.16Z" fill="white"/>
<path d="M148.184 601.16L147.945 601.131C143.749 600.043 140.279 600.963 140.244 600.972C139.74 601.109 139.22 600.812 139.081 600.309C138.944 599.805 139.237 599.286 139.741 599.145C139.901 599.101 143.711 598.077 148.42 599.297C148.927 599.428 149.231 599.944 149.1 600.451C148.989 600.877 148.605 601.16 148.184 601.16Z" fill="white"/>
<path d="M146.515 604.572L146.277 604.541C142.08 603.456 138.611 604.373 138.576 604.384C138.071 604.522 137.551 604.224 137.412 603.721C137.275 603.217 137.568 602.696 138.072 602.557C138.232 602.514 142.041 601.488 146.751 602.708C147.257 602.84 147.561 603.356 147.431 603.861C147.32 604.289 146.936 604.572 146.515 604.572Z" fill="white"/>
<path d="M127.09 243.603C128.357 246.553 129.567 249.612 130.693 252.685C130.847 253.1 130.998 253.512 131.147 253.927C134.915 264.389 136.472 265.021 137.517 272.019C139.685 286.523 137.121 307.671 135.677 322.108C135.677 322.108 176.095 336.528 214.076 319.991C213.317 314.649 208.224 297.671 205.547 281.301C205.332 279.997 205.164 278.845 205.045 277.877C205.013 277.623 204.984 277.383 204.961 277.153L204.952 277.064C204.952 277.064 205.164 276.855 205.525 276.468C207.095 274.788 211.448 269.76 212.996 264.195C214.897 257.353 207.201 244.373 204.54 230.311C201.879 216.248 203.308 212.191 180.737 209.659L156.805 205.343C156.805 205.343 148.611 207.435 139.931 210.331C126.643 214.761 121.565 230.729 127.09 243.603Z" fill="#4F64B8"/>
<path d="M141.881 317.005L141.784 316.997C141.445 316.944 141.215 316.628 141.268 316.289C141.316 315.987 145.997 285.753 142.591 269.779C140.197 258.553 136.884 251.016 136.851 250.943C136.712 250.629 136.853 250.263 137.167 250.124C137.477 249.985 137.844 250.127 137.984 250.44C138.017 250.515 141.381 258.16 143.803 269.521C147.256 285.72 142.54 316.176 142.492 316.481C142.444 316.787 142.18 317.005 141.881 317.005Z" fill="#27459A"/>
<path d="M209.153 272.575C209.008 272.575 208.864 272.524 208.747 272.423C208.488 272.197 208.461 271.807 208.685 271.548C215.36 263.871 213.361 257.679 209.279 248.392C205.111 238.915 202.168 221.308 202.139 221.132C202.084 220.795 202.312 220.475 202.649 220.419C202.987 220.365 203.305 220.592 203.361 220.929C203.389 221.105 206.308 238.559 210.413 247.893C214.568 257.343 216.757 264.151 209.62 272.361C209.499 272.501 209.325 272.575 209.153 272.575Z" fill="#27459A"/>
<path d="M174.635 225.747C174.635 226.515 174.012 227.137 173.244 227.137C172.476 227.137 171.853 226.515 171.853 225.747C171.853 224.979 172.476 224.356 173.244 224.356C174.012 224.356 174.635 224.979 174.635 225.747Z" fill="#27459A"/>
<path d="M178.137 234.899C179.839 234.899 181.316 234.273 182.529 233.04C186.368 229.133 186.263 220.379 186.256 220.008C186.251 219.652 185.967 219.368 185.603 219.376C185.247 219.381 184.964 219.675 184.969 220.029C184.972 220.115 185.072 228.619 181.611 232.139C180.636 233.129 179.5 233.612 178.137 233.612C170.735 233.612 156.939 222.291 156.8 222.176C156.525 221.949 156.12 221.989 155.893 222.263C155.667 222.537 155.707 222.943 155.98 223.168C156.56 223.648 170.273 234.899 178.137 234.899Z" fill="#27459A"/>
<path d="M192.533 211.2C204.327 238.04 204.887 231.912 213.656 251.464C218.98 263.332 206.667 276.108 208.203 283.539C222.111 350.812 237.811 406.521 237.811 406.521C204.504 397.695 172.988 417.349 138.381 413.168C136.577 292.972 152.583 264.88 152.583 264.88C159.665 239.56 141.761 210.013 141.545 209.652C144.528 208.2 147.955 207.812 147.955 207.812C156.591 223.405 159.495 236.416 159.495 236.416C172.335 235.409 193.107 233.503 193.107 233.503L185.235 210.068C185.235 210.068 191.269 209.755 192.533 211.2Z" fill="#1C274A"/>
<path d="M190.732 242.383L192.613 249.028L206.087 247.297L204.211 240.881L190.732 242.383Z" fill="#EA8923"/>
<path d="M136.315 308.139C136.315 308.139 134.072 312.655 136.017 316.388L143.923 317.779L144.459 309.739L136.315 308.139Z" fill="#1C274A"/>
<path d="M226.732 377.528L226.475 377.471C218.093 373.628 213.073 374.024 205.475 374.623C199.352 375.104 191.733 375.703 179.533 374.381C170.02 373.351 164.08 368.996 160.771 365.524C157.176 361.752 155.855 358.257 155.8 358.111C155.681 357.791 155.844 357.433 156.165 357.315C156.484 357.196 156.841 357.36 156.961 357.68C157.016 357.825 162.232 371.26 179.667 373.149C191.751 374.461 199.307 373.864 205.379 373.387C213.168 372.773 218.316 372.368 226.991 376.344C227.303 376.487 227.439 376.855 227.296 377.165C227.192 377.393 226.968 377.528 226.732 377.528Z" fill="#385BAA"/>
<path d="M204.109 312.128C191.955 312.128 181.812 306.303 175.017 300.895C166.229 293.901 160.997 286.071 160.944 285.993C160.756 285.708 160.833 285.324 161.119 285.135C161.404 284.945 161.788 285.024 161.977 285.309C162.028 285.387 167.172 293.076 175.816 299.947C183.749 306.253 196.352 313.149 211.333 310.176C211.669 310.108 211.995 310.327 212.061 310.663C212.128 310.999 211.911 311.324 211.575 311.391C209.015 311.899 206.521 312.128 204.109 312.128Z" fill="#385BAA"/>
<path d="M177.628 198.852C177.628 198.852 184.395 204.416 189.341 197.549C189.341 197.549 198.8 198.06 197.971 189.164C197.971 189.164 204.783 186.292 199.699 174.552C199.699 174.552 206.531 171.109 201.655 160.749C201.655 160.749 205.844 153.995 202.596 147.065C198.741 138.841 190.376 140.72 190.376 140.72C190.376 140.72 189.944 135.048 181.423 133.027C173.243 131.087 172.48 136.475 172.48 136.475C172.48 136.475 165.76 130.848 159.369 133.365C152.979 135.884 152.103 140.407 152.103 140.407C152.103 140.407 145.459 138.667 140.792 144.293C136.125 149.919 138.039 155.9 138.039 155.9C138.039 155.9 132.978 157.404 133.204 164.711C133.432 172.019 136.305 173.127 136.305 173.127C136.305 173.127 130.961 182.295 140.059 186.567C140.059 186.567 146.563 196.075 157.328 194.036C168.091 192 177.628 198.852 177.628 198.852Z" fill="#1C274A"/>
<path d="M180.495 212.027C172.579 226.001 156.495 207.895 156.079 203.933C159.291 194.471 158.008 185.097 158.008 185.097L180.863 193.675C180.797 194.344 180.729 195.017 180.663 195.693C180.351 198.811 180.051 201.999 180.073 205.373C180.084 206.979 180.304 210.323 180.495 212.027Z" fill="#F78F75"/>
<path d="M180.073 205.373C168.049 202.503 160.4 189.948 160.4 189.948L180.663 195.693C180.351 198.811 180.051 201.999 180.073 205.373Z" fill="#1C274A"/>
<path d="M186.157 176.695C186.157 176.695 188 171.063 192.588 172.395C197.176 173.727 197.201 189.031 188.452 188.469L186.157 176.695Z" fill="#E16748"/>
<path d="M182.821 192.547C183.243 196.108 186.484 198.663 190.045 198.241C193.607 197.82 196.161 194.58 195.74 191.017C195.317 187.456 192.077 184.901 188.516 185.324C184.955 185.745 182.4 188.985 182.821 192.547ZM181.688 192.681C181.193 188.495 184.196 184.685 188.383 184.191C192.568 183.695 196.377 186.697 196.872 190.884C197.368 195.071 194.365 198.879 190.179 199.375C185.993 199.869 182.184 196.867 181.688 192.681Z" fill="white"/>
<path d="M157.675 186.929C160.056 193.045 175.948 200.164 182.473 197.128C186.433 195.284 189.932 191.589 191.867 183.427L191.897 183.297C192.011 182.815 192.115 182.341 192.211 181.869C192.389 181.021 192.539 180.193 192.661 179.399C192.689 179.212 192.717 179.027 192.743 178.844C192.809 178.352 192.865 177.875 192.908 177.415C192.963 176.847 192.999 176.309 193.012 175.805C193.232 167.623 193.649 158.429 186.163 153.345C178.676 148.261 167.033 146.917 160.368 154.272C160.368 154.272 155.429 160.68 155.689 172.503C155.947 184.325 155.952 182.512 157.675 186.929Z" fill="#F78F75"/>
<path d="M188.177 174.989L188.168 174.991C187.9 175.012 187.664 174.812 187.641 174.544C187.629 174.407 187.54 174.012 187.292 173.86C187.068 173.723 186.724 173.811 186.475 173.909C185.959 174.115 185.275 174.86 185.076 175.105C184.905 175.315 184.599 175.347 184.389 175.176C184.18 175.005 184.148 174.699 184.317 174.489C184.413 174.372 185.271 173.337 186.115 173.001C186.783 172.737 187.353 172.748 187.811 173.032C188.516 173.471 188.608 174.364 188.616 174.464C188.637 174.729 188.441 174.964 188.177 174.989Z" fill="#1C274A"/>
<path d="M176.071 173.115C175.975 174.263 175.365 175.148 174.709 175.093C174.053 175.039 173.6 174.064 173.696 172.916C173.792 171.768 174.401 170.883 175.057 170.937C175.713 170.993 176.167 171.968 176.071 173.115Z" fill="#1C274A"/>
<path d="M166.635 152.793C166.635 152.793 162.919 165.605 159.233 168.201C155.547 170.799 152.329 164.604 152.329 164.604C152.329 164.604 159.627 144.961 166.635 152.793Z" fill="#1C274A"/>
<path d="M182.547 153.011C182.547 153.011 175.469 163.637 166.257 161.307C157.045 158.976 163.1 151.252 163.1 151.252C163.1 151.252 180.055 144.009 182.547 153.011Z" fill="#1C274A"/>
<path d="M180.081 152.175C180.081 152.175 184.844 165.751 193.78 163.272C202.719 160.793 189.873 147.519 183.884 148.155C177.895 148.791 180.081 152.175 180.081 152.175Z" fill="#1C274A"/>
<path d="M191.897 183.297C192.011 182.815 192.115 182.341 192.211 181.869C192.389 181.021 192.539 180.193 192.661 179.399C192.689 179.212 192.717 179.027 192.743 178.844C192.605 178.836 192.469 178.829 192.331 178.824C189.257 178.717 186.725 179.635 186.683 180.872C186.639 182.072 188.951 183.139 191.897 183.297Z" fill="#E16748"/>
<path d="M162.892 178.344C162.848 179.583 165.305 180.675 168.381 180.783C171.456 180.892 173.985 179.976 174.029 178.737C174.073 177.5 171.615 176.407 168.54 176.299C165.465 176.189 162.936 177.105 162.892 178.344Z" fill="#E16748"/>
<path d="M176.095 163.505C176.095 163.505 172.875 162.496 170.353 164.78C168.944 166.056 170.04 167.557 171.935 166.529C173.259 165.811 174.005 165.512 175.619 165.468C177.232 165.423 176.892 163.656 176.095 163.505Z" fill="#1C274A"/>
<path d="M185.333 165.051C185.333 165.051 188.548 164.021 191.083 166.289C192.5 167.556 191.415 169.064 189.512 168.049C188.184 167.339 187.436 167.044 185.821 167.009C184.208 166.975 184.537 165.205 185.333 165.051Z" fill="#1C274A"/>
<path d="M158.671 171.049C158.671 171.049 156.008 166.255 151.152 168.291C146.295 170.327 148.192 187.092 157.703 185.376L158.671 171.049Z" fill="#F78F75"/>
<path d="M161.173 164.327C161.173 164.327 163.756 179.081 160.377 177.747C157 176.411 155.892 167.532 155.892 167.532L161.173 164.327Z" fill="#1C274A"/>
<path d="M150.767 182.265C151.037 182.581 151.195 182.911 151.469 183.223C148.176 184.089 146.003 187.433 146.78 190.937C147.436 193.893 150.113 196.033 153.14 196.016C157.085 195.995 160.036 192.555 159.585 188.747C159.3 186.331 157.716 184.379 155.613 183.504C154.209 183.084 154 182.504 153.959 181.913C157.417 182.292 160.293 185.013 160.72 188.612C161.215 192.8 158.212 196.608 154.025 197.104C149.839 197.599 146.029 194.596 145.535 190.411C145.104 186.771 147.432 183.405 150.767 182.265Z" fill="white"/>
<path d="M156.544 178.833C156.603 179.077 156.453 179.323 156.209 179.381L156.112 179.395C155.904 179.399 155.713 179.255 155.664 179.047C155.657 179.019 155.261 177.428 154.145 175.972C153.201 176.789 152.448 177.548 152.437 177.556L152.124 177.691L151.796 177.561C151.62 177.385 151.62 177.099 151.796 176.919C151.829 176.885 152.583 176.127 153.552 175.288C152.841 174.572 151.92 173.967 150.74 173.719C150.496 173.667 150.34 173.427 150.392 173.183C150.444 172.936 150.683 172.78 150.927 172.833C155.28 173.751 156.495 178.628 156.544 178.833Z" fill="#1C274A"/>
<path d="M172.448 181.188C172.448 181.188 173.263 187.581 178.052 189.432C183.501 191.539 186.005 184.697 186.005 184.697L172.448 181.188Z" fill="white"/>
<path d="M179.724 191.957C179.929 191.939 180.057 191.911 180.08 191.907C180.332 191.849 180.491 191.599 180.435 191.347C180.379 191.095 180.131 190.933 179.876 190.991C179.803 191.007 178.148 191.341 177.056 190.019C176.797 189.705 176.216 189.815 176.189 190.432C177.329 191.984 178.999 192.025 179.724 191.957Z" fill="#E16748"/>
<path d="M180.94 180.275C180.584 180.319 180.196 180.32 179.781 180.263L179.709 180.224C179.239 179.684 179.636 179.111 180.117 179.152C181.357 179.257 182.243 178.657 182.685 178.261C180.856 175.863 179.773 169.817 179.724 169.545C179.669 169.235 179.877 168.939 180.188 168.884C180.505 168.832 180.793 169.036 180.849 169.347C181.181 171.227 182.368 176.424 183.855 177.868C184.061 178.069 184.085 178.393 183.911 178.623C183.861 178.689 182.804 180.048 180.94 180.275Z" fill="#1C274A"/>
<path d="M156.52 204.949C156.52 204.949 151.376 203.921 148.483 207.656C153.48 214.716 158.629 221.387 165.212 224.356L172.667 217.239C172.667 217.239 161.884 213.629 156.52 204.949Z" fill="#27459A"/>
<path d="M180.073 205.373C180.073 205.373 182.357 204.975 185.235 210.068C184.308 214.644 181.98 219.293 178.639 223.995L172.667 217.239C172.667 217.239 179.204 211.98 180.073 205.373Z" fill="#27459A"/>
<path d="M147.476 237.727L143.143 245.793L138.845 253.96C137.427 256.688 136.012 259.415 134.62 262.145C133.234 264.88 131.858 267.612 130.51 270.345C127.833 275.816 125.214 281.292 122.902 286.719C121.741 289.421 120.647 292.115 119.719 294.707C119.259 295.997 118.839 297.264 118.5 298.437C118.163 299.599 117.903 300.696 117.776 301.401L117.32 296.612C118.052 299.303 118.895 301.865 119.855 304.245C120.821 306.632 121.92 308.827 123.262 310.943C123.934 312.003 124.665 313.051 125.467 314.107C126.265 315.164 127.122 316.239 128.049 317.327C129.901 319.503 132.008 321.751 134.159 324.1L134.167 324.109C137.972 328.268 137.687 334.723 133.529 338.528C129.664 342.065 123.775 342.032 119.914 338.675C117.518 336.576 115.062 334.388 112.547 331.937C111.294 330.709 110.024 329.417 108.784 328.032C107.547 326.647 106.331 325.176 105.174 323.633C102.849 320.551 100.81 317.18 99.1193 313.788C97.4145 310.389 96.0849 306.96 94.9114 303.581C94.4197 302.167 94.263 300.717 94.3989 299.319L94.4551 298.792C94.6983 296.388 95.0911 294.416 95.5259 292.545C95.9655 290.687 96.4521 288.956 96.9614 287.271C97.9859 283.913 99.1035 280.745 100.269 277.637C102.628 271.444 105.154 265.499 107.81 259.641C109.134 256.713 110.483 253.808 111.865 250.927C113.243 248.044 114.638 245.176 116.068 242.328C117.487 239.475 118.94 236.643 120.418 233.823L122.645 229.592C123.018 228.887 123.398 228.183 123.782 227.479L124.956 225.333C128.365 219.108 136.175 216.824 142.401 220.233C148.595 223.624 150.888 231.372 147.555 237.583L147.476 237.727Z" fill="#F78F75"/>
<path d="M139.043 217.153C139.043 217.153 130.216 213.652 122.784 227.016C115.351 240.38 109.467 252.923 109.467 252.923L133.856 263.375C133.856 263.375 148.6 240.844 149.783 237.205C150.967 233.567 150.579 220.017 139.043 217.153Z" fill="#4F64B8"/>
<path d="M134.972 262.34L134.683 262.268C134.381 262.107 134.267 261.732 134.427 261.429L146.495 238.744C146.655 238.441 147.028 238.327 147.332 238.488C147.635 238.648 147.749 239.024 147.588 239.325L135.52 262.012C135.409 262.221 135.195 262.34 134.972 262.34Z" fill="#27459A"/>
<path d="M144.471 244.487C144.199 244.487 143.951 244.308 143.875 244.035C143.781 243.705 143.973 243.363 144.304 243.271L149.616 241.78C149.945 241.687 150.287 241.88 150.38 242.209C150.472 242.539 150.28 242.88 149.951 242.972L144.637 244.464L144.471 244.487Z" fill="#27459A"/>
<path d="M117.886 299.513L117.692 299.481C115.672 298.812 108.545 298.347 108.474 298.341C108.132 298.32 107.873 298.025 107.895 297.684C107.917 297.343 108.207 297.083 108.553 297.105C108.853 297.125 115.912 297.587 118.081 298.305C118.406 298.413 118.581 298.763 118.474 299.088C118.388 299.348 118.146 299.513 117.886 299.513Z" fill="#E16748"/>
<path d="M116.924 299.272C116.764 299.272 116.605 299.209 116.483 299.087C115.372 297.961 112.551 295.565 112.523 295.541C112.262 295.32 112.23 294.928 112.451 294.668C112.672 294.407 113.063 294.375 113.324 294.596C113.442 294.696 116.216 297.052 117.365 298.217C117.606 298.46 117.603 298.852 117.359 299.092C117.239 299.212 117.081 299.272 116.924 299.272Z" fill="#E16748"/>
<path d="M157.644 336.853C157.673 337.883 156.023 337.917 154.1 337.773C153.323 337.717 152.5 337.632 151.728 337.572C151.4 337.547 151.083 337.524 150.779 337.513C147.984 337.397 146.701 336.941 144.408 337.353C144.408 337.353 147.169 337.807 148.619 338.681C148.863 338.831 149.148 338.995 149.455 339.171C150.004 339.489 150.627 339.845 151.231 340.209C152.277 340.84 153.265 341.496 153.711 342.021C154.555 343.021 151.665 344.14 148.901 343.3C147.911 342.996 147.085 342.599 146.357 342.24C145.595 341.863 144.935 341.532 144.305 341.395L144.076 341.355C143.705 341.305 143.341 341.331 142.965 341.461C142.965 341.461 143.661 341.877 144.483 342.423L144.493 342.429L144.632 342.523C145.149 342.867 145.703 343.256 146.156 343.621C146.933 344.245 148.007 345.852 148.385 347.14C148.608 347.888 148.593 348.529 148.148 348.805C147.661 349.111 146.677 348.716 145.519 348.131C143.796 347.261 141.693 345.965 140.272 345.892C137.897 345.771 133.624 345.392 127.655 344.396C122.846 343.593 119.008 339.004 118.078 336.893C117.851 336.383 117.521 335.833 117.521 335.833C120.52 330.981 124.359 327.012 129.149 324.04C129.149 324.04 130.293 323.508 131.771 322.952C133.201 322.416 134.943 321.859 136.257 321.741C136.803 321.692 137.309 321.733 137.775 321.829C138.407 321.956 138.896 322.391 139.408 322.431C140.972 322.552 140.997 322.835 140.997 322.835C141.296 324.483 141.256 325.359 141.435 326.821L141.52 327.472L141.539 327.608C141.577 327.593 141.444 327.629 141.833 327.527C142.799 327.272 144.72 326.867 146.989 326.933C150.264 327.028 153.105 328.944 154.748 329.56C156.389 330.176 154.371 332.271 151.612 332.003C148.853 331.737 146.637 331.981 145.581 332.212C145.581 332.212 148.944 332.3 151.04 333.143C151.925 333.497 153.227 333.925 154.443 334.419C155.033 334.66 155.605 334.919 156.095 335.192C156.993 335.691 157.627 336.244 157.644 336.853Z" fill="#F78F75"/>
</svg>
